<svg width="293" height="163" viewBox="0 0 293 163" fill="none" xmlns="http://www.w3.org/2000/svg">
<path fill-rule="evenodd" clip-rule="evenodd" d="M292.763 150.548C292.763 157.114 287.441 162.437 280.874 162.437H11.8889C5.32283 162.437 0 157.114 0 150.548L0 44.2913C0 37.7252 5.32282 32.4024 11.8889 32.4024H127.993C131.92 32.4024 135.594 30.4633 137.809 27.2211L152.87 5.18133C155.085 1.93909 158.759 0 162.686 0H277.972C284.538 0 289.861 5.32283 289.861 11.8889V30.951C289.861 31.7526 290.51 32.4024 291.312 32.4024V32.4024C292.114 32.4024 292.763 33.0522 292.763 33.8538V150.548Z" fill="#4C55D2"/>
<path d="M249.851 23.0121V22.4973L249.187 22.8826L249.629 23.6531L250.296 23.2678L249.851 23.0121V23.0121Z" fill="#F9E757"/>
<path d="M250.296 23.2678L249.629 23.6531L249.187 22.8826L249.851 22.4973V23.0121L250.296 23.2678Z" fill="#F9E757"/>
<path d="M265.591 13.6664L257.61 9.05986C257.474 8.98015 257.304 8.98015 257.165 9.05986L249.187 13.6664C249.048 13.7461 248.965 13.8922 248.965 14.0516V23.2679C248.965 23.4274 249.048 23.5735 249.187 23.6532L257.165 28.2597C257.235 28.2996 257.311 28.3195 257.387 28.3195C257.464 28.3195 257.543 28.2996 257.61 28.2597L265.591 23.6532C265.73 23.5735 265.813 23.4274 265.813 23.2679V14.0516C265.813 13.8922 265.73 13.7461 265.591 13.6664ZM250.297 23.2679L257.387 19.1729L264.478 23.2679L257.387 27.363L250.297 23.2679L249.629 23.6532L249.187 22.8827L249.852 22.4974V14.3107L257.387 9.9599L264.478 14.0516L249.852 22.4974V23.0122L250.297 23.2679V23.2679Z" fill="#F9E757"/>
<path d="M169.534 13.777V22.2292H167.798V13.777H169.534ZM172.134 13.777V15.1412H165.238V13.777H172.134ZM174.288 17.3181V22.2292H172.616V15.9481H174.189L174.288 17.3181ZM176.18 15.9075L176.151 17.4574C176.07 17.4458 175.971 17.4361 175.855 17.4284C175.743 17.4168 175.641 17.411 175.548 17.411C175.312 17.411 175.107 17.4419 174.932 17.5039C174.762 17.5619 174.619 17.649 174.503 17.7651C174.391 17.8812 174.305 18.0224 174.247 18.1889C174.193 18.3553 174.162 18.5449 174.154 18.7578L173.818 18.6533C173.818 18.2469 173.858 17.8734 173.94 17.5329C174.021 17.1884 174.139 16.8885 174.294 16.6331C174.452 16.3777 174.646 16.1803 174.874 16.041C175.103 15.9016 175.364 15.832 175.658 15.832C175.751 15.832 175.846 15.8397 175.942 15.8552C176.039 15.8668 176.119 15.8842 176.18 15.9075ZM178.735 15.9481V22.2292H177.057V15.9481H178.735ZM176.953 14.311C176.953 14.0672 177.038 13.866 177.208 13.7073C177.378 13.5486 177.607 13.4693 177.893 13.4693C178.176 13.4693 178.402 13.5486 178.572 13.7073C178.746 13.866 178.833 14.0672 178.833 14.311C178.833 14.5549 178.746 14.7561 178.572 14.9148C178.402 15.0735 178.176 15.1528 177.893 15.1528C177.607 15.1528 177.378 15.0735 177.208 14.9148C177.038 14.7561 176.953 14.5549 176.953 14.311ZM181.881 13.3126V22.2292H180.203V13.3126H181.881ZM184.894 13.3126V22.2292H183.222V13.3126H184.894ZM184.656 18.8681H184.197C184.201 18.4307 184.259 18.0283 184.371 17.6606C184.484 17.2891 184.644 16.9679 184.853 16.6969C185.062 16.4222 185.312 16.2093 185.602 16.0584C185.896 15.9075 186.221 15.832 186.577 15.832C186.887 15.832 187.168 15.8765 187.419 15.9655C187.675 16.0506 187.893 16.19 188.075 16.3835C188.261 16.5731 188.404 16.8227 188.505 17.1323C188.605 17.4419 188.656 17.8173 188.656 18.2585V22.2292H186.972V18.2469C186.972 17.9683 186.932 17.7496 186.85 17.5909C186.773 17.4284 186.659 17.3142 186.508 17.2484C186.361 17.1788 186.179 17.1439 185.962 17.1439C185.722 17.1439 185.517 17.1884 185.347 17.2775C185.18 17.3665 185.047 17.4903 184.946 17.649C184.846 17.8038 184.772 17.9857 184.726 18.1947C184.679 18.4036 184.656 18.6281 184.656 18.8681ZM193.317 20.8128V18.0147C193.317 17.8135 193.284 17.6412 193.218 17.4981C193.153 17.351 193.05 17.2368 192.911 17.1556C192.775 17.0743 192.599 17.0336 192.383 17.0336C192.197 17.0336 192.036 17.0665 191.901 17.1323C191.765 17.1943 191.661 17.2852 191.587 17.4052C191.514 17.5213 191.477 17.6587 191.477 17.8173H189.805C189.805 17.5503 189.867 17.2968 189.991 17.0569C190.115 16.8169 190.295 16.606 190.531 16.4241C190.767 16.2383 191.047 16.0932 191.372 15.9887C191.701 15.8842 192.069 15.832 192.475 15.832C192.963 15.832 193.397 15.9133 193.776 16.0758C194.155 16.2383 194.453 16.4822 194.67 16.8072C194.89 17.1323 195.001 17.5387 195.001 18.0263V20.7141C195.001 21.0585 195.022 21.341 195.065 21.5616C195.107 21.7784 195.169 21.968 195.25 22.1305V22.2292H193.561C193.48 22.0589 193.418 21.8461 193.375 21.5907C193.337 21.3314 193.317 21.0721 193.317 20.8128ZM193.538 18.4036L193.549 19.3499H192.615C192.394 19.3499 192.203 19.375 192.04 19.4253C191.877 19.4757 191.744 19.5473 191.639 19.6401C191.535 19.7292 191.458 19.8336 191.407 19.9536C191.361 20.0736 191.338 20.2052 191.338 20.3484C191.338 20.4916 191.371 20.6212 191.436 20.7373C191.502 20.8495 191.597 20.9385 191.721 21.0043C191.845 21.0663 191.99 21.0972 192.156 21.0972C192.408 21.0972 192.626 21.0469 192.812 20.9463C192.998 20.8457 193.141 20.7218 193.242 20.5748C193.346 20.4277 193.4 20.2884 193.404 20.1568L193.845 20.865C193.784 21.0237 193.698 21.1882 193.59 21.3585C193.486 21.5287 193.352 21.6893 193.189 21.8403C193.027 21.9873 192.831 22.1092 192.603 22.206C192.375 22.2989 192.104 22.3453 191.79 22.3453C191.392 22.3453 191.03 22.266 190.705 22.1073C190.384 21.9448 190.128 21.7222 189.939 21.4397C189.753 21.1533 189.66 20.8283 189.66 20.4645C189.66 20.1355 189.722 19.8433 189.846 19.5879C189.97 19.3325 190.151 19.1177 190.391 18.9435C190.635 18.7655 190.939 18.632 191.303 18.543C191.667 18.4501 192.088 18.4036 192.568 18.4036H193.538ZM205.026 20.8708V22.2292H200.527V20.8708H205.026ZM201.096 13.777V22.2292H199.354V13.777H201.096ZM204.44 17.2194V18.543H200.527V17.2194H204.44ZM205.02 13.777V15.1412H200.527V13.777H205.02ZM207.284 15.9481L208.323 17.858L209.392 15.9481H211.174L209.397 19.019L211.255 22.2292H209.467L208.335 20.209L207.203 22.2292H205.415L207.273 19.019L205.496 15.9481H207.284ZM213.658 17.1556V24.6441H211.986V15.9481H213.536L213.658 17.1556ZM217.635 19.019V19.1409C217.635 19.5976 217.581 20.0213 217.472 20.4122C217.368 20.8031 217.213 21.1437 217.008 21.4339C216.803 21.7203 216.547 21.9448 216.242 22.1073C215.94 22.266 215.591 22.3453 215.197 22.3453C214.813 22.3453 214.481 22.2679 214.198 22.1131C213.916 21.9583 213.678 21.7416 213.484 21.4629C213.294 21.1804 213.142 20.8534 213.026 20.4819C212.909 20.1104 212.82 19.7117 212.758 19.286V18.9667C212.82 18.5101 212.909 18.0921 213.026 17.7128C213.142 17.3297 213.294 16.9988 213.484 16.7202C213.678 16.4377 213.914 16.219 214.192 16.0642C214.475 15.9094 214.806 15.832 215.185 15.832C215.584 15.832 215.934 15.9075 216.236 16.0584C216.541 16.2093 216.797 16.426 217.002 16.7086C217.211 16.9911 217.368 17.3278 217.472 17.7186C217.581 18.1095 217.635 18.543 217.635 19.019ZM215.957 19.1409V19.019C215.957 18.752 215.934 18.5062 215.887 18.2817C215.845 18.0534 215.775 17.8541 215.678 17.6838C215.586 17.5135 215.462 17.382 215.307 17.2891C215.156 17.1923 214.972 17.1439 214.755 17.1439C214.527 17.1439 214.332 17.1807 214.169 17.2542C214.01 17.3278 213.881 17.4342 213.78 17.5735C213.68 17.7128 213.604 17.8793 213.554 18.0728C213.503 18.2663 213.473 18.4849 213.461 18.7287V19.5356C213.48 19.822 213.534 20.0794 213.623 20.3077C213.712 20.5322 213.85 20.7102 214.036 20.8418C214.221 20.9734 214.465 21.0392 214.767 21.0392C214.988 21.0392 215.173 20.9908 215.324 20.894C215.475 20.7934 215.597 20.656 215.69 20.4819C215.787 20.3077 215.855 20.1065 215.893 19.8781C215.936 19.6498 215.957 19.4041 215.957 19.1409ZM220.439 13.3126V22.2292H218.761V13.3126H220.439ZM221.553 19.1525V19.0306C221.553 18.5701 221.619 18.1463 221.751 17.7593C221.882 17.3684 222.074 17.0298 222.325 16.7434C222.577 16.457 222.886 16.2345 223.254 16.0758C223.622 15.9133 224.044 15.832 224.52 15.832C224.996 15.832 225.419 15.9133 225.791 16.0758C226.162 16.2345 226.474 16.457 226.726 16.7434C226.981 17.0298 227.175 17.3684 227.306 17.7593C227.438 18.1463 227.503 18.5701 227.503 19.0306V19.1525C227.503 19.6092 227.438 20.033 227.306 20.4238C227.175 20.8108 226.981 21.1495 226.726 21.4397C226.474 21.7261 226.164 21.9486 225.797 22.1073C225.429 22.266 225.007 22.3453 224.531 22.3453C224.055 22.3453 223.631 22.266 223.26 22.1073C222.892 21.9486 222.581 21.7261 222.325 21.4397C222.074 21.1495 221.882 20.8108 221.751 20.4238C221.619 20.033 221.553 19.6092 221.553 19.1525ZM223.225 19.0306V19.1525C223.225 19.4157 223.248 19.6614 223.295 19.8898C223.341 20.1181 223.415 20.3193 223.515 20.4935C223.62 20.6638 223.755 20.7973 223.922 20.894C224.088 20.9908 224.291 21.0392 224.531 21.0392C224.763 21.0392 224.963 20.9908 225.129 20.894C225.296 20.7973 225.429 20.6638 225.53 20.4935C225.63 20.3193 225.704 20.1181 225.75 19.8898C225.801 19.6614 225.826 19.4157 225.826 19.1525V19.0306C225.826 18.7752 225.801 18.5352 225.75 18.3108C225.704 18.0824 225.628 17.8812 225.524 17.707C225.423 17.529 225.29 17.3897 225.123 17.2891C224.957 17.1884 224.756 17.1381 224.52 17.1381C224.284 17.1381 224.082 17.1884 223.916 17.2891C223.753 17.3897 223.62 17.529 223.515 17.707C223.415 17.8812 223.341 18.0824 223.295 18.3108C223.248 18.5352 223.225 18.7752 223.225 19.0306ZM230.203 17.3181V22.2292H228.531V15.9481H230.104L230.203 17.3181ZM232.095 15.9075L232.066 17.4574C231.985 17.4458 231.886 17.4361 231.77 17.4284C231.658 17.4168 231.555 17.411 231.463 17.411C231.226 17.411 231.021 17.4419 230.847 17.5039C230.677 17.5619 230.534 17.649 230.418 17.7651C230.305 17.8812 230.22 18.0224 230.162 18.1889C230.108 18.3553 230.077 18.5449 230.069 18.7578L229.733 18.6533C229.733 18.2469 229.773 17.8734 229.855 17.5329C229.936 17.1884 230.054 16.8885 230.209 16.6331C230.367 16.3777 230.561 16.1803 230.789 16.041C231.017 15.9016 231.279 15.832 231.573 15.832C231.666 15.832 231.761 15.8397 231.857 15.8552C231.954 15.8668 232.033 15.8842 232.095 15.9075ZM235.66 22.3453C235.172 22.3453 234.735 22.2679 234.348 22.1131C233.961 21.9544 233.632 21.7358 233.361 21.4571C233.094 21.1785 232.889 20.8553 232.745 20.4877C232.602 20.1162 232.531 19.7214 232.531 19.3034V19.0712C232.531 18.5952 232.598 18.1598 232.734 17.7651C232.869 17.3703 233.063 17.0278 233.314 16.7376C233.57 16.4473 233.879 16.2248 234.243 16.07C234.607 15.9113 235.017 15.832 235.474 15.832C235.919 15.832 236.314 15.9055 236.658 16.0526C237.003 16.1996 237.291 16.4086 237.523 16.6795C237.759 16.9504 237.937 17.2755 238.057 17.6548C238.177 18.0302 238.237 18.4482 238.237 18.9087V19.6053H233.245V18.4907H236.594V18.363C236.594 18.1308 236.552 17.9238 236.467 17.7419C236.385 17.5561 236.261 17.409 236.095 17.3007C235.929 17.1923 235.716 17.1381 235.456 17.1381C235.236 17.1381 235.046 17.1865 234.888 17.2833C234.729 17.38 234.599 17.5155 234.499 17.6896C234.402 17.8638 234.328 18.0689 234.278 18.305C234.232 18.5372 234.208 18.7926 234.208 19.0712V19.3034C234.208 19.555 234.243 19.7872 234.313 20.0001C234.386 20.2129 234.489 20.3967 234.621 20.5515C234.756 20.7063 234.919 20.8263 235.108 20.9115C235.302 20.9966 235.52 21.0392 235.764 21.0392C236.066 21.0392 236.347 20.9811 236.606 20.865C236.869 20.745 237.095 20.5651 237.285 20.3251L238.098 21.2075C237.966 21.3972 237.786 21.579 237.558 21.7532C237.333 21.9274 237.063 22.0705 236.745 22.1828C236.428 22.2911 236.066 22.3453 235.66 22.3453ZM240.861 17.3181V22.2292H239.189V15.9481H240.762L240.861 17.3181ZM242.753 15.9075L242.724 17.4574C242.643 17.4458 242.544 17.4361 242.428 17.4284C242.316 17.4168 242.214 17.411 242.121 17.411C241.885 17.411 241.68 17.4419 241.505 17.5039C241.335 17.5619 241.192 17.649 241.076 17.7651C240.964 17.8812 240.878 18.0224 240.82 18.1889C240.766 18.3553 240.735 18.5449 240.727 18.7578L240.391 18.6533C240.391 18.2469 240.431 17.8734 240.513 17.5329C240.594 17.1884 240.712 16.8885 240.867 16.6331C241.025 16.3777 241.219 16.1803 241.447 16.041C241.676 15.9016 241.937 15.832 242.231 15.832C242.324 15.832 242.419 15.8397 242.515 15.8552C242.612 15.8668 242.692 15.8842 242.753 15.9075Z" fill="#F9E757"/>
</svg>
