<svg width="293" height="163" viewBox="0 0 293 163" fill="none" xmlns="http://www.w3.org/2000/svg">
<path fill-rule="evenodd" clip-rule="evenodd" d="M292.763 150.548C292.763 157.114 287.441 162.437 280.874 162.437H11.8889C5.32283 162.437 0 157.114 0 150.548L0 44.2913C0 37.7252 5.32282 32.4024 11.8889 32.4024H127.993C131.92 32.4024 135.594 30.4633 137.809 27.2211L152.87 5.18133C155.085 1.93909 158.759 0 162.686 0H277.972C284.538 0 289.861 5.32283 289.861 11.8889V30.951C289.861 31.7526 290.51 32.4024 291.312 32.4024V32.4024C292.114 32.4024 292.763 33.0522 292.763 33.8538V150.548Z" fill="#047C3F "/>
<path d="M260.042 11.1791C259.916 11.0343 259.718 10.9685 259.5 11.0146L243.952 15.174C243.77 15.2299 243.631 15.3714 243.582 15.5557C243.536 15.7367 243.592 15.9308 243.724 16.0624L245.955 18.2869L242.658 19.1721C242.476 19.2247 242.338 19.3695 242.291 19.5538C242.245 19.7348 242.301 19.9289 242.433 20.0606L251.081 28.6754C251.183 28.7774 251.322 28.8334 251.46 28.8334C251.503 28.8334 251.549 28.8268 251.592 28.8169C251.774 28.7709 251.919 28.6294 251.979 28.4352L252.853 25.1643L255.098 27.4052C255.2 27.504 255.335 27.5599 255.474 27.5599C255.517 27.5599 255.563 27.5533 255.606 27.5434C255.791 27.4974 255.933 27.3592 255.992 27.165L260.154 11.6727C260.203 11.5016 260.161 11.3141 260.042 11.1791V11.1791ZM251.279 27.6257L243.486 19.8631L246.678 19.0075L252.13 24.4437L251.279 27.6257V27.6257ZM255.296 26.3522L253.117 24.1804L255.134 16.6745C255.193 16.4869 255.14 16.2829 255.002 16.1447C254.863 16.0065 254.662 15.9538 254.484 16.0065L246.942 18.0237L244.777 15.865L259.144 12.0215L255.296 26.3522Z" fill="#F9E757"/>
<path d="M175.576 14.9551V23.4863H173.824V14.9551H175.576ZM178.201 14.9551V16.332H171.24V14.9551H178.201ZM180.375 18.5293V23.4863H178.688V17.1465H180.276L180.375 18.5293ZM182.285 17.1055L182.256 18.6699C182.174 18.6582 182.074 18.6485 181.957 18.6406C181.844 18.6289 181.74 18.6231 181.647 18.6231C181.408 18.6231 181.201 18.6543 181.026 18.7168C180.854 18.7754 180.709 18.8633 180.592 18.9805C180.479 19.0977 180.393 19.2402 180.334 19.4082C180.279 19.5762 180.248 19.7676 180.24 19.9824L179.901 19.877C179.901 19.4668 179.942 19.0899 180.024 18.7461C180.106 18.3985 180.225 18.0957 180.381 17.8379C180.541 17.5801 180.736 17.3809 180.967 17.2402C181.197 17.0996 181.461 17.0293 181.758 17.0293C181.852 17.0293 181.947 17.0371 182.045 17.0527C182.143 17.0645 182.223 17.082 182.285 17.1055ZM184.863 17.1465V23.4863H183.17V17.1465H184.863ZM183.065 15.4942C183.065 15.2481 183.151 15.0449 183.322 14.8848C183.494 14.7246 183.725 14.6445 184.014 14.6445C184.299 14.6445 184.527 14.7246 184.699 14.8848C184.875 15.0449 184.963 15.2481 184.963 15.4942C184.963 15.7402 184.875 15.9434 184.699 16.1035C184.527 16.2637 184.299 16.3438 184.014 16.3438C183.725 16.3438 183.494 16.2637 183.322 16.1035C183.151 15.9434 183.065 15.7402 183.065 15.4942ZM188.039 14.4863V23.4863H186.346V14.4863H188.039ZM191.08 14.4863V23.4863H189.393V14.4863H191.08ZM190.84 20.0938H190.377C190.381 19.6524 190.44 19.2461 190.553 18.875C190.666 18.5 190.828 18.1758 191.039 17.9024C191.25 17.625 191.502 17.4102 191.795 17.2578C192.092 17.1055 192.42 17.0293 192.779 17.0293C193.092 17.0293 193.375 17.0742 193.629 17.1641C193.887 17.25 194.108 17.3906 194.291 17.586C194.479 17.7774 194.623 18.0293 194.725 18.3418C194.826 18.6543 194.877 19.0332 194.877 19.4785V23.4863H193.178V19.4668C193.178 19.1856 193.137 18.9649 193.055 18.8047C192.977 18.6406 192.861 18.5254 192.709 18.459C192.561 18.3887 192.377 18.3535 192.158 18.3535C191.916 18.3535 191.709 18.3985 191.537 18.4883C191.369 18.5781 191.235 18.7031 191.133 18.8633C191.031 19.0195 190.957 19.2031 190.91 19.4141C190.863 19.625 190.84 19.8516 190.84 20.0938ZM199.582 22.0567V19.2324C199.582 19.0293 199.549 18.8555 199.483 18.711C199.416 18.5625 199.313 18.4473 199.172 18.3652C199.035 18.2832 198.858 18.2422 198.639 18.2422C198.451 18.2422 198.289 18.2754 198.152 18.3418C198.016 18.4043 197.91 18.4961 197.836 18.6172C197.762 18.7344 197.725 18.8731 197.725 19.0332H196.037C196.037 18.7637 196.1 18.5078 196.225 18.2656C196.35 18.0235 196.531 17.8106 196.77 17.627C197.008 17.4395 197.291 17.293 197.619 17.1875C197.951 17.082 198.322 17.0293 198.733 17.0293C199.225 17.0293 199.662 17.1113 200.045 17.2754C200.428 17.4395 200.729 17.6856 200.947 18.0137C201.17 18.3418 201.281 18.752 201.281 19.2442V21.957C201.281 22.3047 201.303 22.5899 201.346 22.8125C201.389 23.0313 201.451 23.2227 201.533 23.3867V23.4863H199.828C199.746 23.3145 199.684 23.0996 199.641 22.8418C199.602 22.5801 199.582 22.3184 199.582 22.0567ZM199.805 19.625L199.817 20.5801H198.873C198.651 20.5801 198.457 20.6055 198.293 20.6563C198.129 20.707 197.994 20.7793 197.889 20.8731C197.783 20.9629 197.705 21.0684 197.654 21.1895C197.608 21.3106 197.584 21.4434 197.584 21.5879C197.584 21.7324 197.617 21.8633 197.684 21.9805C197.75 22.0938 197.846 22.1836 197.971 22.25C198.096 22.3125 198.242 22.3438 198.41 22.3438C198.664 22.3438 198.885 22.293 199.072 22.1914C199.26 22.0899 199.404 21.9649 199.506 21.8164C199.611 21.668 199.666 21.5274 199.67 21.3945L200.115 22.1094C200.053 22.2695 199.967 22.4356 199.858 22.6074C199.752 22.7793 199.617 22.9414 199.453 23.0938C199.289 23.2422 199.092 23.3652 198.861 23.4629C198.631 23.5567 198.358 23.6035 198.041 23.6035C197.639 23.6035 197.274 23.5235 196.945 23.3633C196.621 23.1992 196.363 22.9746 196.172 22.6895C195.985 22.4004 195.891 22.0723 195.891 21.7051C195.891 21.3731 195.953 21.0781 196.078 20.8203C196.203 20.5625 196.387 20.3457 196.629 20.1699C196.875 19.9902 197.182 19.8555 197.549 19.7656C197.916 19.6719 198.342 19.625 198.826 19.625H199.805ZM207.545 14.9551V23.4863H205.793V14.9551H207.545ZM213.1 17.1465H214.629V23.2754C214.629 23.8535 214.5 24.3438 214.242 24.7461C213.988 25.1524 213.633 25.459 213.176 25.666C212.719 25.877 212.188 25.9824 211.582 25.9824C211.317 25.9824 211.035 25.9473 210.738 25.877C210.445 25.8067 210.164 25.6973 209.895 25.5488C209.629 25.4004 209.406 25.2129 209.227 24.9863L209.971 23.9902C210.166 24.2168 210.393 24.3926 210.651 24.5176C210.908 24.6465 211.194 24.711 211.506 24.711C211.811 24.711 212.069 24.6543 212.279 24.541C212.49 24.4317 212.652 24.2695 212.766 24.0547C212.879 23.8438 212.936 23.5879 212.936 23.2871V18.6113L213.1 17.1465ZM208.834 20.3926V20.2695C208.834 19.7852 208.893 19.3457 209.01 18.9512C209.131 18.5527 209.301 18.211 209.52 17.9258C209.742 17.6406 210.012 17.4199 210.328 17.2637C210.645 17.1074 211.002 17.0293 211.401 17.0293C211.822 17.0293 212.176 17.1074 212.461 17.2637C212.746 17.4199 212.981 17.6426 213.164 17.9317C213.348 18.2168 213.49 18.5547 213.592 18.9453C213.697 19.332 213.779 19.7559 213.838 20.2168V20.4863C213.779 20.9277 213.692 21.3379 213.574 21.7168C213.457 22.0957 213.303 22.4277 213.111 22.7129C212.92 22.9942 212.682 23.2129 212.397 23.3692C212.115 23.5254 211.779 23.6035 211.389 23.6035C210.998 23.6035 210.645 23.5235 210.328 23.3633C210.016 23.2031 209.748 22.9785 209.526 22.6895C209.303 22.4004 209.131 22.0606 209.01 21.6699C208.893 21.2793 208.834 20.8535 208.834 20.3926ZM210.522 20.2695V20.3926C210.522 20.6543 210.547 20.8985 210.598 21.125C210.649 21.3516 210.727 21.5527 210.832 21.7285C210.942 21.9004 211.076 22.0352 211.236 22.1328C211.401 22.2266 211.594 22.2735 211.817 22.2735C212.125 22.2735 212.377 22.209 212.572 22.0801C212.768 21.9473 212.914 21.7656 213.012 21.5352C213.11 21.3047 213.166 21.0391 213.182 20.7383V19.9707C213.174 19.7246 213.141 19.5039 213.082 19.3086C213.024 19.1094 212.942 18.9395 212.836 18.7988C212.731 18.6582 212.594 18.5488 212.426 18.4707C212.258 18.3926 212.059 18.3535 211.828 18.3535C211.606 18.3535 211.412 18.4043 211.248 18.5059C211.088 18.6035 210.953 18.7383 210.844 18.9102C210.738 19.082 210.658 19.2852 210.604 19.5195C210.549 19.75 210.522 20 210.522 20.2695ZM217.594 18.5V23.4863H215.906V17.1465H217.488L217.594 18.5ZM217.348 20.0938H216.891C216.891 19.625 216.951 19.2031 217.072 18.8281C217.194 18.4492 217.363 18.127 217.582 17.8613C217.801 17.5918 218.061 17.3867 218.361 17.2461C218.666 17.1016 219.006 17.0293 219.381 17.0293C219.678 17.0293 219.949 17.0723 220.195 17.1582C220.442 17.2442 220.652 17.3809 220.828 17.5684C221.008 17.7559 221.145 18.0039 221.238 18.3125C221.336 18.6211 221.385 18.9981 221.385 19.4434V23.4863H219.686V19.4375C219.686 19.1563 219.647 18.9375 219.569 18.7813C219.49 18.625 219.375 18.5156 219.223 18.4531C219.074 18.3867 218.891 18.3535 218.672 18.3535C218.445 18.3535 218.248 18.3985 218.08 18.4883C217.916 18.5781 217.779 18.7031 217.67 18.8633C217.565 19.0195 217.485 19.2031 217.43 19.4141C217.375 19.625 217.348 19.8516 217.348 20.0938ZM224.449 17.1465V23.4863H222.756V17.1465H224.449ZM222.651 15.4942C222.651 15.2481 222.736 15.0449 222.908 14.8848C223.08 14.7246 223.311 14.6445 223.6 14.6445C223.885 14.6445 224.113 14.7246 224.285 14.8848C224.461 15.0449 224.549 15.2481 224.549 15.4942C224.549 15.7402 224.461 15.9434 224.285 16.1035C224.113 16.2637 223.885 16.3438 223.6 16.3438C223.311 16.3438 223.08 16.2637 222.908 16.1035C222.736 15.9434 222.651 15.7402 222.651 15.4942ZM228.949 17.1465V18.3418H225.258V17.1465H228.949ZM226.172 15.582H227.86V21.5762C227.86 21.7598 227.883 21.9004 227.93 21.9981C227.981 22.0957 228.055 22.1641 228.152 22.2031C228.25 22.2383 228.373 22.2559 228.522 22.2559C228.627 22.2559 228.721 22.252 228.803 22.2442C228.889 22.2324 228.961 22.2207 229.02 22.209L229.026 23.4512C228.881 23.4981 228.725 23.5352 228.557 23.5625C228.389 23.5899 228.203 23.6035 228 23.6035C227.629 23.6035 227.305 23.543 227.027 23.4219C226.754 23.2969 226.543 23.0977 226.395 22.8242C226.246 22.5508 226.172 22.1914 226.172 21.7461V15.582ZM232.828 23.6035C232.336 23.6035 231.895 23.5254 231.504 23.3692C231.113 23.209 230.781 22.9883 230.508 22.707C230.238 22.4258 230.031 22.0996 229.887 21.7285C229.742 21.3535 229.67 20.9551 229.67 20.5332V20.2988C229.67 19.8184 229.738 19.3789 229.875 18.9805C230.012 18.582 230.207 18.2363 230.461 17.9434C230.719 17.6504 231.031 17.4258 231.399 17.2695C231.766 17.1094 232.18 17.0293 232.641 17.0293C233.09 17.0293 233.488 17.1035 233.836 17.252C234.184 17.4004 234.475 17.6113 234.709 17.8848C234.947 18.1582 235.127 18.4863 235.248 18.8692C235.369 19.2481 235.43 19.6699 235.43 20.1348V20.8379H230.391V19.7129H233.772V19.584C233.772 19.3496 233.729 19.1406 233.643 18.957C233.561 18.7695 233.436 18.6211 233.268 18.5117C233.1 18.4024 232.885 18.3477 232.623 18.3477C232.401 18.3477 232.209 18.3965 232.049 18.4942C231.889 18.5918 231.758 18.7285 231.656 18.9043C231.559 19.0801 231.485 19.2871 231.434 19.5254C231.387 19.7598 231.363 20.0176 231.363 20.2988V20.5332C231.363 20.7871 231.399 21.0215 231.469 21.2363C231.543 21.4512 231.647 21.6367 231.779 21.793C231.916 21.9492 232.08 22.0703 232.272 22.1563C232.467 22.2422 232.688 22.2852 232.934 22.2852C233.238 22.2852 233.522 22.2266 233.783 22.1094C234.049 21.9883 234.277 21.8067 234.469 21.5645L235.289 22.4551C235.156 22.6465 234.975 22.8301 234.744 23.0059C234.518 23.1817 234.244 23.3262 233.924 23.4395C233.604 23.5488 233.238 23.6035 232.828 23.6035Z" fill="#F9E757"/>
</svg>
